<mxfile host="app.diagrams.net" modified="2023-11-12T19:10:32.722Z" agent="Mozilla/5.0 (Windows NT 10.0; Win64; x64) AppleWebKit/537.36 (KHTML, like Gecko) Chrome/119.0.0.0 Safari/537.36" etag="iMkrDP265-80YjxnGohV" version="22.1.0" type="github">
  <diagram name="Page-1" id="sgB0P8gaZthjgNVDP02o">
    <mxGraphModel dx="2350" dy="1920" grid="1" gridSize="10" guides="1" tooltips="1" connect="1" arrows="1" fold="1" page="1" pageScale="1" pageWidth="850" pageHeight="1100" math="0" shadow="0">
      <root>
        <mxCell id="0" />
        <mxCell id="1" parent="0" />
        <mxCell id="aavVFJ89ipJU3S-xtzNM-1" value="&lt;p style=&quot;line-height: 110%;&quot;&gt;«System»&lt;br&gt;&lt;b&gt;Loop Platform&lt;/b&gt;&lt;/p&gt;" style="html=1;whiteSpace=wrap;rotation=0;labelPosition=center;verticalLabelPosition=top;align=center;verticalAlign=bottom;labelBackgroundColor=none;fillColor=#ffcd28;strokeColor=#d79b00;shadow=0;rounded=0;glass=1;gradientColor=#ffa500;" vertex="1" parent="1">
          <mxGeometry x="-260" y="-140" width="1070" height="710" as="geometry" />
        </mxCell>
        <mxCell id="aavVFJ89ipJU3S-xtzNM-4" value="«subsystem»&lt;br style=&quot;border-color: var(--border-color);&quot;&gt;&lt;b&gt;Front-end&lt;/b&gt;" style="html=1;whiteSpace=wrap;labelPosition=center;verticalLabelPosition=top;align=center;verticalAlign=bottom;glass=1;fillColor=#ffcd28;strokeColor=#d79b00;gradientColor=#ffa500;" vertex="1" parent="1">
          <mxGeometry x="-250" y="-95" width="150" height="640" as="geometry" />
        </mxCell>
        <mxCell id="2FC5MomY9qDRFOBIYeOQ-1" value="&amp;lt;&amp;lt;subsystem&amp;gt;&amp;gt;&lt;br&gt;&lt;b&gt;Back-end&lt;/b&gt;" style="html=1;whiteSpace=wrap;labelPosition=center;verticalLabelPosition=top;align=center;verticalAlign=bottom;fillColor=#ffcd28;strokeColor=#d79b00;glass=1;gradientColor=#ffa500;" vertex="1" parent="1">
          <mxGeometry x="-90" y="-90" width="870" height="640" as="geometry" />
        </mxCell>
        <mxCell id="2FC5MomY9qDRFOBIYeOQ-2" value="&amp;lt;&amp;lt;subsystem&amp;gt;&amp;gt;&lt;br style=&quot;border-color: var(--border-color);&quot;&gt;&lt;b&gt;Infrastructure services&lt;/b&gt;" style="html=1;whiteSpace=wrap;labelPosition=center;verticalLabelPosition=top;align=center;verticalAlign=bottom;fillColor=#ffcd28;strokeColor=#d79b00;glass=1;gradientColor=#ffa500;" vertex="1" parent="1">
          <mxGeometry x="580" y="-50" width="190" height="590" as="geometry" />
        </mxCell>
        <mxCell id="2FC5MomY9qDRFOBIYeOQ-3" value="&amp;lt;&amp;lt;subsystem&amp;gt;&amp;gt;&lt;br style=&quot;border-color: var(--border-color);&quot;&gt;&lt;b&gt;Insurance services&lt;/b&gt;" style="html=1;whiteSpace=wrap;labelPosition=center;verticalLabelPosition=top;align=center;verticalAlign=bottom;fillColor=#ffcd28;strokeColor=#d79b00;glass=1;gradientColor=#ffa500;" vertex="1" parent="1">
          <mxGeometry x="-70" y="-50" width="640" height="140" as="geometry" />
        </mxCell>
        <mxCell id="2FC5MomY9qDRFOBIYeOQ-6" value="&amp;lt;&amp;lt;subsystem&amp;gt;&amp;gt;&lt;br style=&quot;border-color: var(--border-color);&quot;&gt;&lt;b&gt;Web contents management services&lt;/b&gt;" style="html=1;whiteSpace=wrap;labelPosition=center;verticalLabelPosition=top;align=center;verticalAlign=bottom;glass=1;fillColor=#ffcd28;strokeColor=#d79b00;gradientColor=#ffa500;" vertex="1" parent="1">
          <mxGeometry x="-70" y="130" width="640" height="130" as="geometry" />
        </mxCell>
        <mxCell id="2FC5MomY9qDRFOBIYeOQ-7" value="&amp;lt;&amp;lt;subsystem&amp;gt;&amp;gt;&lt;br style=&quot;border-color: var(--border-color);&quot;&gt;&lt;b&gt;Integration API&#39;s&lt;/b&gt;" style="html=1;whiteSpace=wrap;labelPosition=center;verticalLabelPosition=top;align=center;verticalAlign=bottom;glass=1;fillColor=#ffcd28;strokeColor=#d79b00;gradientColor=#ffa500;" vertex="1" parent="1">
          <mxGeometry x="-70" y="410" width="640" height="130" as="geometry" />
        </mxCell>
        <mxCell id="2FC5MomY9qDRFOBIYeOQ-19" value="&amp;lt;&amp;lt;API&amp;gt;&amp;gt;&lt;br&gt;&lt;b&gt;SMS Gateway&lt;/b&gt;" style="html=1;whiteSpace=wrap;" vertex="1" parent="1">
          <mxGeometry x="430" y="450" width="120" height="50" as="geometry" />
        </mxCell>
        <mxCell id="2FC5MomY9qDRFOBIYeOQ-20" value="&amp;lt;&amp;lt;API&amp;gt;&amp;gt;&lt;br&gt;&lt;b&gt;Payment gateway&lt;/b&gt;" style="html=1;whiteSpace=wrap;" vertex="1" parent="1">
          <mxGeometry x="280" y="450" width="130" height="50" as="geometry" />
        </mxCell>
        <mxCell id="2FC5MomY9qDRFOBIYeOQ-21" value="&amp;lt;&amp;lt;API&amp;gt;&amp;gt;&lt;br&gt;&lt;b&gt;Online policy issuance&lt;/b&gt;" style="html=1;whiteSpace=wrap;" vertex="1" parent="1">
          <mxGeometry x="120" y="450" width="130" height="50" as="geometry" />
        </mxCell>
        <mxCell id="2FC5MomY9qDRFOBIYeOQ-22" value="&amp;lt;&amp;lt;API&amp;gt;&amp;gt;&lt;br&gt;&lt;b&gt;Quote request&lt;/b&gt;" style="html=1;whiteSpace=wrap;" vertex="1" parent="1">
          <mxGeometry x="-40" y="450" width="140" height="50" as="geometry" />
        </mxCell>
        <mxCell id="2FC5MomY9qDRFOBIYeOQ-23" value="&amp;lt;&amp;lt;Mobile-App&amp;gt;&amp;gt;&lt;br&gt;&lt;b&gt;Customer App&lt;/b&gt;" style="html=1;whiteSpace=wrap;fillColor=#fff2cc;gradientColor=#ffd966;strokeColor=#d6b656;glass=1;" vertex="1" parent="1">
          <mxGeometry x="-240" y="470" width="130" height="50" as="geometry" />
        </mxCell>
        <mxCell id="2FC5MomY9qDRFOBIYeOQ-24" value="&amp;lt;&amp;lt;Mobile-App&amp;gt;&amp;gt;&lt;br&gt;&lt;b&gt;Sales Agents&lt;/b&gt;" style="html=1;whiteSpace=wrap;fillColor=#fff2cc;gradientColor=#ffd966;strokeColor=#d6b656;glass=1;" vertex="1" parent="1">
          <mxGeometry x="-240" y="410" width="130" height="50" as="geometry" />
        </mxCell>
        <mxCell id="2FC5MomY9qDRFOBIYeOQ-25" value="&amp;lt;&amp;lt;Web-App&amp;gt;&amp;gt;&lt;br&gt;&lt;b&gt;Reporting webapp&lt;/b&gt;" style="html=1;whiteSpace=wrap;fillColor=#d5e8d4;strokeColor=#82b366;glass=1;gradientColor=#97d077;" vertex="1" parent="1">
          <mxGeometry x="-240" y="220" width="130" height="50" as="geometry" />
        </mxCell>
        <mxCell id="2FC5MomY9qDRFOBIYeOQ-26" value="&amp;lt;&amp;lt;Web-App&amp;gt;&amp;gt;&lt;br&gt;&lt;b&gt;Agents webapp&lt;/b&gt;" style="html=1;whiteSpace=wrap;glass=1;fillColor=#d5e8d4;strokeColor=#82b366;gradientColor=#97d077;" vertex="1" parent="1">
          <mxGeometry x="-240" y="150" width="130" height="50" as="geometry" />
        </mxCell>
        <mxCell id="2FC5MomY9qDRFOBIYeOQ-27" value="&amp;lt;&amp;lt;Web-App&amp;gt;&amp;gt;&lt;br&gt;&lt;b&gt;Members webapp&lt;/b&gt;" style="html=1;whiteSpace=wrap;glass=1;fillColor=#d5e8d4;strokeColor=#82b366;gradientColor=#97d077;" vertex="1" parent="1">
          <mxGeometry x="-240" y="80" width="130" height="50" as="geometry" />
        </mxCell>
        <mxCell id="2FC5MomY9qDRFOBIYeOQ-28" value="&amp;lt;&amp;lt;Web-App&amp;gt;&amp;gt;&lt;br&gt;&lt;b&gt;Administration webapp&lt;/b&gt;" style="html=1;whiteSpace=wrap;glass=1;fillColor=#d5e8d4;strokeColor=#82b366;gradientColor=#97d077;" vertex="1" parent="1">
          <mxGeometry x="-240" y="10" width="130" height="50" as="geometry" />
        </mxCell>
        <mxCell id="2FC5MomY9qDRFOBIYeOQ-29" value="&amp;lt;&amp;lt;Web-App&amp;gt;&amp;gt;&lt;br&gt;&lt;b&gt;Public Website&lt;/b&gt;" style="html=1;whiteSpace=wrap;fillColor=#d5e8d4;strokeColor=#82b366;glass=1;gradientColor=#97d077;" vertex="1" parent="1">
          <mxGeometry x="-240" y="-60" width="130" height="50" as="geometry" />
        </mxCell>
        <mxCell id="2FC5MomY9qDRFOBIYeOQ-30" value="&amp;lt;&amp;lt;component&amp;gt;&amp;gt;&lt;br&gt;&lt;b&gt;SEO&lt;/b&gt;" style="shape=module;align=left;spacingLeft=20;align=center;verticalAlign=top;whiteSpace=wrap;html=1;" vertex="1" parent="1">
          <mxGeometry x="200" y="200" width="170" height="50" as="geometry" />
        </mxCell>
        <mxCell id="2FC5MomY9qDRFOBIYeOQ-31" value="&amp;lt;&amp;lt;component&amp;gt;&amp;gt;&lt;br&gt;&lt;b&gt;Sales management&lt;br&gt;(sales workflow)&lt;/b&gt;" style="shape=module;align=left;spacingLeft=20;align=center;verticalAlign=top;whiteSpace=wrap;html=1;" vertex="1" parent="1">
          <mxGeometry x="400" y="310" width="160" height="50" as="geometry" />
        </mxCell>
        <mxCell id="2FC5MomY9qDRFOBIYeOQ-32" value="&amp;lt;&amp;lt;component&amp;gt;&amp;gt;&lt;br&gt;&lt;b&gt;Payments processor&lt;/b&gt;" style="shape=module;align=left;spacingLeft=20;align=center;verticalAlign=top;whiteSpace=wrap;html=1;" vertex="1" parent="1">
          <mxGeometry x="185" y="310" width="165" height="50" as="geometry" />
        </mxCell>
        <mxCell id="2FC5MomY9qDRFOBIYeOQ-33" value="&amp;lt;&amp;lt;component&amp;gt;&amp;gt;&lt;br&gt;&lt;b&gt;Financial services&lt;br&gt;(reconcilation)&lt;/b&gt;" style="shape=module;align=left;spacingLeft=20;align=center;verticalAlign=top;whiteSpace=wrap;html=1;" vertex="1" parent="1">
          <mxGeometry x="-40" y="310" width="190" height="50" as="geometry" />
        </mxCell>
        <mxCell id="2FC5MomY9qDRFOBIYeOQ-34" value="&amp;lt;&amp;lt;component&amp;gt;&amp;gt;&lt;br&gt;&lt;b&gt;Accounts management&lt;/b&gt;" style="shape=module;align=left;spacingLeft=20;align=center;verticalAlign=top;whiteSpace=wrap;html=1;" vertex="1" parent="1">
          <mxGeometry x="200" y="140" width="170" height="50" as="geometry" />
        </mxCell>
        <mxCell id="2FC5MomY9qDRFOBIYeOQ-35" value="&amp;lt;&amp;lt;component&amp;gt;&amp;gt;&lt;br&gt;&lt;b&gt;Banners management&lt;/b&gt;" style="shape=module;align=left;spacingLeft=20;align=center;verticalAlign=top;whiteSpace=wrap;html=1;" vertex="1" parent="1">
          <mxGeometry x="390" y="140" width="160" height="50" as="geometry" />
        </mxCell>
        <mxCell id="2FC5MomY9qDRFOBIYeOQ-36" value="&amp;lt;&amp;lt;component&amp;gt;&amp;gt;&lt;br&gt;&lt;b&gt;Broadcast services&lt;br&gt;(SMS,EMails)&lt;/b&gt;" style="shape=module;align=left;spacingLeft=20;align=center;verticalAlign=top;whiteSpace=wrap;html=1;" vertex="1" parent="1">
          <mxGeometry x="-35" y="200" width="185" height="50" as="geometry" />
        </mxCell>
        <mxCell id="2FC5MomY9qDRFOBIYeOQ-37" value="&amp;lt;&amp;lt;component&amp;gt;&amp;gt;&lt;br&gt;&lt;b&gt;CMS&lt;/b&gt;" style="shape=module;align=left;spacingLeft=20;align=center;verticalAlign=top;whiteSpace=wrap;html=1;" vertex="1" parent="1">
          <mxGeometry x="-40" y="140" width="190" height="50" as="geometry" />
        </mxCell>
        <mxCell id="2FC5MomY9qDRFOBIYeOQ-38" value="&amp;lt;&amp;lt;component&amp;gt;&amp;gt;&lt;br&gt;&lt;b&gt;Insurance quotes&lt;/b&gt;" style="shape=module;align=left;spacingLeft=20;align=center;verticalAlign=top;whiteSpace=wrap;html=1;" vertex="1" parent="1">
          <mxGeometry x="-50" y="30" width="200" height="50" as="geometry" />
        </mxCell>
        <mxCell id="2FC5MomY9qDRFOBIYeOQ-39" value="&amp;lt;&amp;lt;component&amp;gt;&amp;gt;&lt;br&gt;&lt;b&gt;Agents management&lt;/b&gt;" style="shape=module;align=left;spacingLeft=20;align=center;verticalAlign=top;whiteSpace=wrap;html=1;" vertex="1" parent="1">
          <mxGeometry x="-50" y="-40" width="200" height="50" as="geometry" />
        </mxCell>
        <mxCell id="2FC5MomY9qDRFOBIYeOQ-40" value="&amp;lt;&amp;lt;component&amp;gt;&amp;gt;&lt;br&gt;&lt;b&gt;Policy management&lt;/b&gt;" style="shape=module;align=left;spacingLeft=20;align=center;verticalAlign=top;whiteSpace=wrap;html=1;" vertex="1" parent="1">
          <mxGeometry x="185" y="20" width="180" height="50" as="geometry" />
        </mxCell>
        <mxCell id="2FC5MomY9qDRFOBIYeOQ-41" value="&amp;lt;&amp;lt;component&amp;gt;&amp;gt;&lt;br&gt;&lt;b&gt;Membership management&lt;/b&gt;" style="shape=module;align=left;spacingLeft=20;align=center;verticalAlign=top;whiteSpace=wrap;html=1;" vertex="1" parent="1">
          <mxGeometry x="185" y="-40" width="180" height="50" as="geometry" />
        </mxCell>
        <mxCell id="2FC5MomY9qDRFOBIYeOQ-42" value="&amp;lt;&amp;lt;component&amp;gt;&amp;gt;&lt;br&gt;&lt;b&gt;Pricing calculator&lt;/b&gt;" style="shape=module;align=left;spacingLeft=20;align=center;verticalAlign=top;whiteSpace=wrap;html=1;" vertex="1" parent="1">
          <mxGeometry x="390" y="30" width="160" height="50" as="geometry" />
        </mxCell>
        <mxCell id="2FC5MomY9qDRFOBIYeOQ-43" value="&amp;lt;&amp;lt;component&amp;gt;&amp;gt;&lt;br&gt;&lt;b&gt;Billing&lt;/b&gt;" style="shape=module;align=left;spacingLeft=20;align=center;verticalAlign=top;whiteSpace=wrap;html=1;" vertex="1" parent="1">
          <mxGeometry x="390" y="-40" width="160" height="50" as="geometry" />
        </mxCell>
        <mxCell id="2FC5MomY9qDRFOBIYeOQ-44" value="&amp;lt;&amp;lt;component&amp;gt;&amp;gt;&lt;br&gt;&lt;b&gt;Auditing&lt;/b&gt;" style="shape=module;align=left;spacingLeft=20;align=center;verticalAlign=top;whiteSpace=wrap;html=1;" vertex="1" parent="1">
          <mxGeometry x="590" y="170" width="170" height="50" as="geometry" />
        </mxCell>
        <mxCell id="2FC5MomY9qDRFOBIYeOQ-45" value="&amp;lt;&amp;lt;component&amp;gt;&amp;gt;&lt;br&gt;&lt;b&gt;Notifications and alerts&lt;/b&gt;" style="shape=module;align=left;spacingLeft=20;align=center;verticalAlign=top;whiteSpace=wrap;html=1;" vertex="1" parent="1">
          <mxGeometry x="590" y="100" width="170" height="50" as="geometry" />
        </mxCell>
        <mxCell id="2FC5MomY9qDRFOBIYeOQ-46" value="&amp;lt;&amp;lt;component&amp;gt;&amp;gt;&lt;br&gt;&lt;b&gt;Monitor and analytics&lt;/b&gt;" style="shape=module;align=left;spacingLeft=20;align=center;verticalAlign=top;whiteSpace=wrap;html=1;" vertex="1" parent="1">
          <mxGeometry x="590" y="30" width="170" height="50" as="geometry" />
        </mxCell>
        <mxCell id="2FC5MomY9qDRFOBIYeOQ-47" value="&amp;lt;&amp;lt;component&amp;gt;&amp;gt;&lt;br&gt;&lt;b&gt;Security&lt;/b&gt;" style="shape=module;align=left;spacingLeft=20;align=center;verticalAlign=top;whiteSpace=wrap;html=1;" vertex="1" parent="1">
          <mxGeometry x="590" y="-30" width="170" height="50" as="geometry" />
        </mxCell>
      </root>
    </mxGraphModel>
  </diagram>
</mxfile>
